<?xml version="1.0" encoding="UTF-8" standalone="no"?>
<svg
   xmlns:dc="http://purl.org/dc/elements/1.1/"
   xmlns:cc="http://creativecommons.org/ns#"
   xmlns:rdf="http://www.w3.org/1999/02/22-rdf-syntax-ns#"
   xmlns:svg="http://www.w3.org/2000/svg"
   xmlns="http://www.w3.org/2000/svg"
   xmlns:sodipodi="http://sodipodi.sourceforge.net/DTD/sodipodi-0.dtd"
   xmlns:inkscape="http://www.inkscape.org/namespaces/inkscape"
   id="svg"
   version="1.1"
   width="400"
   height="400"
   style="display: block;"
   sodipodi:docname="patreon.svg"
   inkscape:version="0.92.0 r15299">
  <metadata
     id="metadata3731">
    <rdf:RDF>
      <cc:Work
         rdf:about="">
        <dc:format>image/svg+xml</dc:format>
        <dc:type
           rdf:resource="http://purl.org/dc/dcmitype/StillImage" />
        <dc:title></dc:title>
      </cc:Work>
    </rdf:RDF>
  </metadata>
  <defs
     id="defs3729" />
  <sodipodi:namedview
     pagecolor="#ffffff"
     bordercolor="#666666"
     borderopacity="1"
     objecttolerance="10"
     gridtolerance="10"
     guidetolerance="10"
     inkscape:pageopacity="0"
     inkscape:pageshadow="2"
     inkscape:window-width="1826"
     inkscape:window-height="1046"
     id="namedview3727"
     showgrid="false"
     inkscape:zoom="0.90028971"
     inkscape:cx="368.27916"
     inkscape:cy="200"
     inkscape:window-x="0"
     inkscape:window-y="0"
     inkscape:window-maximized="0"
     inkscape:current-layer="svgg" />
  <g
     id="svgg">
    <path
       id="path0"
       d="M178.000 1.036 C 85.248 12.286,13.558 83.083,1.538 175.301 C 0.237 185.280,-0.000 203.537,-0.000 293.551 L 0.000 400.000 23.000 400.000 L 46.000 400.000 46.001 299.250 C 46.002 167.973,46.535 162.947,64.074 129.015 C 114.310 31.824,250.665 17.805,319.115 102.794 C 397.107 199.631,336.043 342.531,212.000 353.461 C 196.382 354.837,165.408 350.622,154.526 345.640 L 149.000 343.111 149.000 310.207 L 149.000 277.304 158.750 282.146 C 231.908 318.476,312.325 248.738,286.757 171.137 C 258.437 85.181,135.458 89.627,110.773 177.500 L 108.526 185.500 108.233 292.750 L 107.940 400.000 161.746 400.000 C 193.328 400.000,219.052 399.566,224.026 398.949 C 372.470 380.531,449.376 212.432,366.125 88.353 C 325.086 27.189,249.942 -7.689,178.000 1.036 "
       stroke="none"
       fill="#000000"
       fill-rule="evenodd" />
  </g>
</svg>
